<?xml version="1.0" encoding="UTF-8"?>
<svg width="64px" height="64px" viewBox="0 0 64 64" version="1.1" xmlns="http://www.w3.org/2000/svg" xmlns:xlink="http://www.w3.org/1999/xlink">
    <title>Icon/01 Standard/menu</title>
    <g id="Icon/01-Standard/menu" stroke="none" stroke-width="1" fill="none" fill-rule="evenodd">
        <path d="M56,44 C58.209139,44 60,45.790861 60,48 C60,50.209139 58.209139,52 56,52 L8,52 C5.790861,52 4,50.209139 4,48 C4,45.790861 5.790861,44 8,44 L56,44 Z M56,28 C58.209139,28 60,29.790861 60,32 C60,34.209139 58.209139,36 56,36 L8,36 C5.790861,36 4,34.209139 4,32 C4,29.790861 5.790861,28 8,28 L56,28 Z M56,12 C58.209139,12 60,13.790861 60,16 C60,18.209139 58.209139,20 56,20 L8,20 C5.790861,20 4,18.209139 4,16 C4,13.790861 5.790861,12 8,12 L56,12 Z" id="🎨-Fill" fill="#2071BD"></path>
    </g>
</svg>